<?xml version="1.0" encoding="iso-8859-1"?>

<svg version="1.1" id="Capa_1" xmlns="http://www.w3.org/2000/svg" xmlns:xlink="http://www.w3.org/1999/xlink" x="0px" y="0px" viewBox="0 0 57.544 57.544" style="enable-background:new 0 0 57.544 57.544;" xml:space="preserve">
	<g>
		<g>
			<path fill="white" d="M41.044,26.402c-0.807,0-1.417,0.378-1.879,0.927c-0.015-0.172-0.022-0.32-0.022-0.438c0-2.513-1.389-4.137-3.537-4.137
			c-0.643,0-1.183,0.121-1.632,0.315L33.512,9.065c-0.088-1.223-1.021-3.042-3.227-3.042c-2.684,0-3.703,2.137-3.745,2.228
			c-0.058,0.124-0.089,0.259-0.093,0.396l-0.037,1.538c-0.541-0.381-1.225-0.641-2.042-0.641c-1.957,0-3.049,1.837-3.386,2.923
			c-0.027,0.086-0.042,0.176-0.045,0.267l-0.498,17.25c-0.828-1.548-1.999-3.02-2.884-3.472c-1.036-0.529-2.786-0.17-3.825,0.781
			c-0.962,0.88-1.214,2.129-0.691,3.429c0.416,1.033,0.668,2.248,0.961,3.653c0.373,1.795,0.837,4.028,1.824,6.751
			c1.586,4.375,6.534,8.995,7.914,10.224v0.285c0,3.259,2.653,5.909,5.914,5.909h6.477c3.262,0,5.915-2.653,5.915-5.915v-0.945
			c1.663-2.28,2.657-6.387,2.7-6.567c0.019-0.076,0.027-0.154,0.027-0.232V30.221C44.772,27.936,43.274,26.402,41.044,26.402z
			 M42.772,43.761c-0.172,0.675-1.132,4.273-2.502,5.95c-0.146,0.179-0.226,0.402-0.226,0.633v1.285
			c0,2.159-1.756,3.915-3.915,3.915h-6.477c-2.158,0-3.914-1.754-3.914-3.909v-0.738c0-0.293-0.129-0.571-0.352-0.761
			c-0.06-0.052-6.054-5.197-7.682-9.691c-0.94-2.589-1.368-4.654-1.747-6.476c-0.311-1.5-0.581-2.795-1.063-3.993
			c-0.26-0.647-0.06-0.964,0.144-1.168c0.396-0.396,1.039-0.543,1.397-0.543c0.093,0,0.166,0.01,0.211,0.028
			c0.675,0.345,2.313,2.669,2.736,4.35c0.173,0.683,0.26,1.331,0.337,1.902c0.146,1.094,0.263,1.957,0.917,2.477
			c0.297,0.236,0.701,0.283,1.044,0.123c0.343-0.159,0.566-0.499,0.578-0.877l0.674-23.315c0.139-0.35,0.629-1.409,1.436-1.409
			c1.127,0,1.501,1.051,1.517,1.051c0.001,0,0.001,0,0.001-0.001c0,0.474,0.095,15.067,0.095,15.067
			c0.004,0.546,0.444,0.988,0.991,0.993c0.003,0,0.006,0,0.009,0c0.542,0,0.986-0.433,1-0.976l0.46-18.729
			c0.206-0.305,0.758-0.926,1.845-0.926c1.01,0,1.199,0.837,1.23,1.148l0.627,19.058c0.018,0.55,0.501,0.951,1.027,0.967
			c0.55-0.016,0.984-0.474,0.972-1.023l-0.062-2.596c0.107-0.259,0.463-0.822,1.525-0.822c1.271,0,1.537,1.162,1.537,2.137
			c0,1.211,0.58,4.338,0.646,4.69c0.092,0.489,0.532,0.83,1.025,0.814c0.497-0.021,0.903-0.405,0.952-0.9
			c0.139-1.401,0.739-3.093,1.277-3.093c1.428,0,1.728,0.989,1.728,1.818L42.772,43.761L42.772,43.761z" />
			<path fill="white" d="M14.666,7.577l5.639,2.053c0.112,0.041,0.229,0.061,0.342,0.061c0.408,0,0.792-0.252,0.939-0.658
			c0.19-0.519-0.078-1.093-0.598-1.281l-3.495-1.273c2.915-1.232,6.79-1.934,10.837-1.934c5.149,0,9.859,1.103,12.804,2.952
			l-3.491,1.271c-0.52,0.189-0.787,0.763-0.598,1.281c0.147,0.406,0.531,0.658,0.939,0.658c0.113,0,0.229-0.019,0.342-0.061
			l5.638-2.053c0.52-0.189,0.787-0.763,0.598-1.281l-2.052-5.638c-0.188-0.519-0.766-0.787-1.281-0.598
			c-0.52,0.189-0.787,0.763-0.598,1.281l1.164,3.199c-3.274-1.895-8.184-3.013-13.466-3.013c-4.254,0-8.364,0.74-11.512,2.045
			L18,1.342c0.189-0.519-0.078-1.093-0.598-1.281c-0.517-0.188-1.093,0.079-1.281,0.598l-2.053,5.638
			c-0.091,0.249-0.079,0.524,0.033,0.765S14.417,7.486,14.666,7.577z" />
		</g>
	</g>

</svg>